<mxfile host="Electron" modified="2024-02-01T14:30:03.095Z" agent="Mozilla/5.0 (X11; Linux x86_64) AppleWebKit/537.36 (KHTML, like Gecko) draw.io/21.2.8 Chrome/112.0.5615.165 Electron/24.2.0 Safari/537.36" etag="fLg1fzydch8QFFu4kY3E" version="21.2.8" type="device">
  <diagram name="Seite-1" id="M02VLi2FpCdwjEhCarFm">
    <mxGraphModel dx="876" dy="544" grid="1" gridSize="10" guides="1" tooltips="1" connect="1" arrows="1" fold="1" page="1" pageScale="1" pageWidth="827" pageHeight="1169" math="0" shadow="0">
      <root>
        <mxCell id="0" />
        <mxCell id="1" parent="0" />
        <mxCell id="VQD1OY8gU0yRri7ffiYI-1" value="" style="rounded=0;whiteSpace=wrap;html=1;" vertex="1" parent="1">
          <mxGeometry x="40" y="40" width="240" height="90" as="geometry" />
        </mxCell>
        <mxCell id="VQD1OY8gU0yRri7ffiYI-2" value="i_Clk" style="text;html=1;align=left;verticalAlign=middle;resizable=0;points=[];autosize=1;strokeColor=none;fillColor=none;" vertex="1" parent="1">
          <mxGeometry x="40" y="40" width="50" height="30" as="geometry" />
        </mxCell>
        <mxCell id="VQD1OY8gU0yRri7ffiYI-3" value="i_RX_Serial" style="text;html=1;align=left;verticalAlign=middle;resizable=0;points=[];autosize=1;strokeColor=none;fillColor=none;" vertex="1" parent="1">
          <mxGeometry x="40" y="100" width="90" height="30" as="geometry" />
        </mxCell>
        <mxCell id="VQD1OY8gU0yRri7ffiYI-4" value="o_RX_DV" style="text;html=1;align=right;verticalAlign=middle;resizable=0;points=[];autosize=1;strokeColor=none;fillColor=none;" vertex="1" parent="1">
          <mxGeometry x="200" y="40" width="80" height="30" as="geometry" />
        </mxCell>
        <mxCell id="VQD1OY8gU0yRri7ffiYI-5" value="o_RX_Byte" style="text;html=1;align=right;verticalAlign=middle;resizable=0;points=[];autosize=1;strokeColor=none;fillColor=none;" vertex="1" parent="1">
          <mxGeometry x="200" y="100" width="80" height="30" as="geometry" />
        </mxCell>
        <mxCell id="VQD1OY8gU0yRri7ffiYI-6" value="UART_RX" style="text;html=1;strokeColor=none;fillColor=none;align=center;verticalAlign=middle;whiteSpace=wrap;rounded=0;" vertex="1" parent="1">
          <mxGeometry x="130" y="70" width="60" height="30" as="geometry" />
        </mxCell>
        <mxCell id="VQD1OY8gU0yRri7ffiYI-7" value="entity UART_RX is&#xa;  generic (&#xa;    g_CLKS_PER_BIT : integer := 434 -- 50000000 / 115200&#xa;    );&#xa;  port (&#xa;    i_Clk       : in  std_logic;&#xa;    i_RX_Serial : in  std_logic;&#xa;    o_RX_DV     : out std_logic; -- data valid pulse: indicates when RX_Byte has valid content&#xa;    o_RX_Byte   : out std_logic_vector(7 downto 0)&#xa;    );&#xa;end UART_RX;" style="text;whiteSpace=wrap;html=1;" vertex="1" parent="1">
          <mxGeometry x="320" y="40" width="500" height="180" as="geometry" />
        </mxCell>
      </root>
    </mxGraphModel>
  </diagram>
</mxfile>
